<?xml version="1.0" encoding="UTF-8"?>
<svg version="1.1" xmlns="http://www.w3.org/2000/svg" width="1000" height="1000">
<path d="M0 0 C13.17794604 -0.20863806 26.3554985 -0.36849999 39.53476048 -0.46630955 C45.6547083 -0.51325691 51.7735253 -0.57692083 57.89282227 -0.67895508 C63.79975916 -0.77683067 69.70560935 -0.83057609 75.6132946 -0.85389519 C77.86567227 -0.87050999 80.11799119 -0.90295681 82.36990547 -0.95157051 C85.52858497 -1.01703988 88.68279092 -1.02589768 91.84204102 -1.02172852 C92.77064941 -1.054086 93.69925781 -1.08644348 94.65600586 -1.11978149 C98.72593124 -1.06176216 101.05849379 -0.87533022 104.110075 1.96176338 C105.903635 4.23836357 107.48326621 6.53224026 109 9 C110.02673828 10.55654297 110.02673828 10.55654297 111.07421875 12.14453125 C112.15759676 13.93617091 113.24092945 15.72783796 114.32421875 17.51953125 C115.88991141 20.01604439 115.88991141 20.01604439 117.88891602 21.84790039 C120.07009218 24.07145398 121.72364229 26.32673666 123.453125 28.9140625 C124.071875 29.83960938 124.690625 30.76515625 125.328125 31.71875 C125.96234375 32.6778125 126.5965625 33.636875 127.25 34.625 C128.22453125 36.07519531 128.22453125 36.07519531 129.21875 37.5546875 C130.13914062 38.93914062 130.13914062 38.93914062 131.078125 40.3515625 C131.63918945 41.19541504 132.20025391 42.03926758 132.77832031 42.90869141 C134 45 134 45 134 47 C134.99 47.33 135.98 47.66 137 48 C138.65405273 50.16137695 138.65405273 50.16137695 140.43359375 52.98828125 C141.4071582 54.51291992 141.4071582 54.51291992 142.40039062 56.06835938 C143.40875977 57.67420898 143.40875977 57.67420898 144.4375 59.3125 C145.76493933 61.41566569 147.09681665 63.51603829 148.43359375 65.61328125 C149.31615845 67.01767456 149.31615845 67.01767456 150.21655273 68.45043945 C151.95872739 70.94099796 153.84483913 72.86912858 156 75 C157.19095856 76.60923177 158.34056723 78.2496634 159.453125 79.9140625 C160.071875 80.83960938 160.690625 81.76515625 161.328125 82.71875 C161.96234375 83.6778125 162.5965625 84.636875 163.25 85.625 C164.22453125 87.07519531 164.22453125 87.07519531 165.21875 88.5546875 C165.83234375 89.47765625 166.4459375 90.400625 167.078125 91.3515625 C167.63918945 92.19541504 168.20025391 93.03926758 168.77832031 93.90869141 C170 96 170 96 170 98 C170.99 98.33 171.98 98.66 173 99 C174.65405273 101.16137695 174.65405273 101.16137695 176.43359375 103.98828125 C177.08263672 105.00470703 177.73167969 106.02113281 178.40039062 107.06835938 C179.07263672 108.13892578 179.74488281 109.20949219 180.4375 110.3125 C181.76493933 112.41566569 183.09681665 114.51603829 184.43359375 116.61328125 C185.31615845 118.01767456 185.31615845 118.01767456 186.21655273 119.45043945 C187.95872739 121.94099796 189.84483913 123.86912858 192 126 C193.19095856 127.60923177 194.34056723 129.2496634 195.453125 130.9140625 C196.071875 131.83960938 196.690625 132.76515625 197.328125 133.71875 C197.96234375 134.6778125 198.5965625 135.636875 199.25 136.625 C200.22453125 138.07519531 200.22453125 138.07519531 201.21875 139.5546875 C201.83234375 140.47765625 202.4459375 141.400625 203.078125 142.3515625 C203.63918945 143.19541504 204.20025391 144.03926758 204.77832031 144.90869141 C206 147 206 147 206 149 C206.99 149.33 207.98 149.66 209 150 C210.65405273 152.16137695 210.65405273 152.16137695 212.43359375 154.98828125 C213.4071582 156.51291992 213.4071582 156.51291992 214.40039062 158.06835938 C215.07263672 159.13892578 215.74488281 160.20949219 216.4375 161.3125 C217.76493933 163.41566569 219.09681665 165.51603829 220.43359375 167.61328125 C221.02197021 168.54954346 221.61034668 169.48580566 222.21655273 170.45043945 C223.95872739 172.94099796 225.84483913 174.86912858 228 177 C229.19095856 178.60923177 230.34056723 180.2496634 231.453125 181.9140625 C232.071875 182.83960938 232.690625 183.76515625 233.328125 184.71875 C233.96234375 185.6778125 234.5965625 186.636875 235.25 187.625 C236.22453125 189.07519531 236.22453125 189.07519531 237.21875 190.5546875 C237.83234375 191.47765625 238.4459375 192.400625 239.078125 193.3515625 C239.63918945 194.19541504 240.20025391 195.03926758 240.77832031 195.90869141 C242 198 242 198 242 200 C242.99 200.33 243.98 200.66 245 201 C246.66992187 203.22485352 246.66992187 203.22485352 248.46875 206.12890625 C249.12230469 207.16337891 249.77585937 208.19785156 250.44921875 209.26367188 C251.81815818 211.46570872 253.18534206 213.66883789 254.55078125 215.87304688 C255.20433594 216.90623047 255.85789062 217.93941406 256.53125 219.00390625 C257.42166992 220.43972046 257.42166992 220.43972046 258.33007812 221.90454102 C259.15668945 222.94179321 259.15668945 222.94179321 260 224 C260.99 224 261.98 224 263 224 C264.90202884 221.7256781 264.90202884 221.7256781 266.72265625 218.75 C267.42583984 217.6671875 268.12902344 216.584375 268.85351562 215.46875 C269.59072538 214.31306192 270.32704293 213.15680425 271.0625 212 C272.50346537 209.74441139 273.95423022 207.49605669 275.41015625 205.25 C276.05090088 204.24453125 276.69164551 203.2390625 277.35180664 202.203125 C277.89571045 201.47609375 278.43961426 200.7490625 279 200 C279.66 200 280.32 200 281 200 C281.26570801 199.2769165 281.53141602 198.55383301 281.80517578 197.80883789 C283.00939348 194.97791745 284.4157092 192.61778243 286.1171875 190.05859375 C286.72433594 189.14529297 287.33148437 188.23199219 287.95703125 187.29101562 C288.58996094 186.34935547 289.22289062 185.40769531 289.875 184.4375 C290.81279297 183.01920898 290.81279297 183.01920898 291.76953125 181.57226562 C292.37925781 180.66025391 292.98898437 179.74824219 293.6171875 178.80859375 C294.44645752 177.56807251 294.44645752 177.56807251 295.29248047 176.30249023 C297 174 297 174 299 172.01098633 C301.16802497 169.83105204 302.71991281 167.59891131 304.3828125 165.015625 C304.99253906 164.08105469 305.60226562 163.14648438 306.23046875 162.18359375 C307.5029102 160.21327719 308.77372073 158.24190649 310.04296875 156.26953125 C310.65011719 155.34011719 311.25726562 154.41070312 311.8828125 153.453125 C312.43340332 152.59879883 312.98399414 151.74447266 313.55126953 150.86425781 C314.02935059 150.24905273 314.50743164 149.63384766 315 149 C315.66 149 316.32 149 317 149 C317.26570801 148.2769165 317.53141602 147.55383301 317.80517578 146.80883789 C319.00939348 143.97791745 320.4157092 141.61778243 322.1171875 139.05859375 C322.72433594 138.14529297 323.33148437 137.23199219 323.95703125 136.29101562 C324.58996094 135.34935547 325.22289062 134.40769531 325.875 133.4375 C326.81279297 132.01920898 326.81279297 132.01920898 327.76953125 130.57226562 C328.37925781 129.66025391 328.98898437 128.74824219 329.6171875 127.80859375 C330.17003418 126.98157959 330.72288086 126.15456543 331.29248047 125.30249023 C333 123 333 123 335 121.01098633 C337.16802497 118.83105204 338.71991281 116.59891131 340.3828125 114.015625 C340.99253906 113.08105469 341.60226562 112.14648438 342.23046875 111.18359375 C343.5029102 109.21327719 344.77372073 107.24190649 346.04296875 105.26953125 C346.65011719 104.34011719 347.25726562 103.41070312 347.8828125 102.453125 C348.43340332 101.59879883 348.98399414 100.74447266 349.55126953 99.86425781 C350.02935059 99.24905273 350.50743164 98.63384766 351 98 C351.66 98 352.32 98 353 98 C353.26570801 97.2769165 353.53141602 96.55383301 353.80517578 95.80883789 C355.00939348 92.97791745 356.4157092 90.61778243 358.1171875 88.05859375 C358.72433594 87.14529297 359.33148437 86.23199219 359.95703125 85.29101562 C360.90642578 83.87852539 360.90642578 83.87852539 361.875 82.4375 C362.81279297 81.01920898 362.81279297 81.01920898 363.76953125 79.57226562 C364.68412109 78.20424805 364.68412109 78.20424805 365.6171875 76.80859375 C366.17003418 75.98157959 366.72288086 75.15456543 367.29248047 74.30249023 C369 72 369 72 371 70.01098633 C373.16802497 67.83105204 374.71991281 65.59891131 376.3828125 63.015625 C376.99253906 62.08105469 377.60226562 61.14648438 378.23046875 60.18359375 C379.5029102 58.21327719 380.77372073 56.24190649 382.04296875 54.26953125 C382.65011719 53.34011719 383.25726562 52.41070312 383.8828125 51.453125 C384.43340332 50.59879883 384.98399414 49.74447266 385.55126953 48.86425781 C386.02935059 48.24905273 386.50743164 47.63384766 387 47 C387.66 47 388.32 47 389 47 C389.26570801 46.2769165 389.53141602 45.55383301 389.80517578 44.80883789 C391.00939348 41.97791745 392.4157092 39.61778243 394.1171875 37.05859375 C394.72433594 36.14529297 395.33148437 35.23199219 395.95703125 34.29101562 C396.58996094 33.34935547 397.22289062 32.40769531 397.875 31.4375 C398.81279297 30.01920898 398.81279297 30.01920898 399.76953125 28.57226562 C400.37925781 27.66025391 400.98898437 26.74824219 401.6171875 25.80859375 C402.17003418 24.98157959 402.72288086 24.15456543 403.29248047 23.30249023 C405.02567462 20.96537927 406.93483607 19.04313344 409 17 C409.87390786 15.82683043 410.71246229 14.62622405 411.5078125 13.3984375 C412.15169922 12.41617188 412.15169922 12.41617188 412.80859375 11.4140625 C413.24300781 10.74117187 413.67742187 10.06828125 414.125 9.375 C415.00050683 8.02728103 415.8780266 6.68086701 416.7578125 5.3359375 C417.1408252 4.74345215 417.52383789 4.1509668 417.91845703 3.54052734 C419 2 419 2 421 0 C422.83906746 -0.24609566 422.83906746 -0.24609566 425.11282349 -0.24050903 C425.97381653 -0.24325836 426.83480957 -0.24600769 427.72189331 -0.24884033 C428.66847809 -0.24164978 429.61506287 -0.23445923 430.59033203 -0.22705078 C431.58548828 -0.22734283 432.58064453 -0.22763489 433.60595703 -0.22793579 C436.90666316 -0.2265386 440.20714563 -0.21095904 443.5078125 -0.1953125 C445.791818 -0.19158376 448.0758251 -0.18873613 450.35983276 -0.18673706 C456.3801513 -0.1790897 462.40037379 -0.15943174 468.4206543 -0.1373291 C474.5603709 -0.1168944 480.70010297 -0.10774043 486.83984375 -0.09765625 C498.89327143 -0.07618689 510.94662774 -0.04203767 523 0 C523 4.52749222 522.17339057 5.79363795 519.75 9.5 C518.84507812 10.90765625 518.84507812 10.90765625 517.921875 12.34375 C516 15 516 15 514.09130859 16.85449219 C511.90737655 19.09502392 510.30914073 21.35595451 508.6171875 23.984375 C508.00746094 24.91894531 507.39773438 25.85351562 506.76953125 26.81640625 C505.4970898 28.78672281 504.22627927 30.75809351 502.95703125 32.73046875 C502.34988281 33.65988281 501.74273438 34.58929688 501.1171875 35.546875 C500.56659668 36.40120117 500.01600586 37.25552734 499.44873047 38.13574219 C498.97064941 38.75094727 498.49256836 39.36615234 498 40 C497.34 40 496.68 40 496 40 C495.73429199 40.7230835 495.46858398 41.44616699 495.19482422 42.19116211 C493.99060652 45.02208255 492.5842908 47.38221757 490.8828125 49.94140625 C490.27566406 50.85470703 489.66851563 51.76800781 489.04296875 52.70898438 C488.41003906 53.65064453 487.77710938 54.59230469 487.125 55.5625 C486.18720703 56.98079102 486.18720703 56.98079102 485.23046875 58.42773438 C484.62074219 59.33974609 484.01101563 60.25175781 483.3828125 61.19140625 C482.82996582 62.01842041 482.27711914 62.84543457 481.70751953 63.69750977 C480 66 480 66 478 67.98901367 C475.83197503 70.16894796 474.28008719 72.40108869 472.6171875 74.984375 C472.00746094 75.91894531 471.39773438 76.85351562 470.76953125 77.81640625 C469.4970898 79.78672281 468.22627927 81.75809351 466.95703125 83.73046875 C466.34988281 84.65988281 465.74273438 85.58929688 465.1171875 86.546875 C464.56659668 87.40120117 464.01600586 88.25552734 463.44873047 89.13574219 C462.97064941 89.75094727 462.49256836 90.36615234 462 91 C461.34 91 460.68 91 460 91 C459.73429199 91.7230835 459.46858398 92.44616699 459.19482422 93.19116211 C457.99060652 96.02208255 456.5842908 98.38221757 454.8828125 100.94140625 C454.27566406 101.85470703 453.66851563 102.76800781 453.04296875 103.70898438 C452.09357422 105.12147461 452.09357422 105.12147461 451.125 106.5625 C450.18720703 107.98079102 450.18720703 107.98079102 449.23046875 109.42773438 C448.31587891 110.79575195 448.31587891 110.79575195 447.3828125 112.19140625 C446.82996582 113.01842041 446.27711914 113.84543457 445.70751953 114.69750977 C444 117 444 117 442.00927734 118.97045898 C439.76241701 121.23997903 438.17910495 123.58597305 436.46875 126.28125 C435.50001953 127.79138672 435.50001953 127.79138672 434.51171875 129.33203125 C433.51591797 130.90017578 433.51591797 130.90017578 432.5 132.5 C431.18176642 134.57589793 429.85900829 136.64893118 428.53125 138.71875 C427.94923828 139.63591797 427.36722656 140.55308594 426.76757812 141.49804688 C425.02895211 143.95901917 423.13002938 145.87989717 421 148 C419.83007757 149.63193641 418.70403582 151.29597467 417.6171875 152.984375 C417.00746094 153.91894531 416.39773438 154.85351562 415.76953125 155.81640625 C414.4970898 157.78672281 413.22627927 159.75809351 411.95703125 161.73046875 C411.34988281 162.65988281 410.74273438 163.58929688 410.1171875 164.546875 C409.56659668 165.40120117 409.01600586 166.25552734 408.44873047 167.13574219 C407.97064941 167.75094727 407.49256836 168.36615234 407 169 C406.34 169 405.68 169 405 169 C404.73429199 169.7230835 404.46858398 170.44616699 404.19482422 171.19116211 C402.99060652 174.02208255 401.5842908 176.38221757 399.8828125 178.94140625 C399.27566406 179.85470703 398.66851563 180.76800781 398.04296875 181.70898438 C397.41003906 182.65064453 396.77710938 183.59230469 396.125 184.5625 C395.18720703 185.98079102 395.18720703 185.98079102 394.23046875 187.42773438 C393.62074219 188.33974609 393.01101563 189.25175781 392.3828125 190.19140625 C391.55354248 191.43192749 391.55354248 191.43192749 390.70751953 192.69750977 C389 195 389 195 387 196.98901367 C384.83197503 199.16894796 383.28008719 201.40108869 381.6171875 203.984375 C381.00746094 204.91894531 380.39773438 205.85351562 379.76953125 206.81640625 C378.4970898 208.78672281 377.22627927 210.75809351 375.95703125 212.73046875 C375.34988281 213.65988281 374.74273438 214.58929688 374.1171875 215.546875 C373.56659668 216.40120117 373.01600586 217.25552734 372.44873047 218.13574219 C371.97064941 218.75094727 371.49256836 219.36615234 371 220 C370.34 220 369.68 220 369 220 C368.73429199 220.7230835 368.46858398 221.44616699 368.19482422 222.19116211 C366.99060652 225.02208255 365.5842908 227.38221757 363.8828125 229.94140625 C363.27566406 230.85470703 362.66851563 231.76800781 362.04296875 232.70898438 C361.41003906 233.65064453 360.77710938 234.59230469 360.125 235.5625 C359.18720703 236.98079102 359.18720703 236.98079102 358.23046875 238.42773438 C357.62074219 239.33974609 357.01101563 240.25175781 356.3828125 241.19140625 C355.55354248 242.43192749 355.55354248 242.43192749 354.70751953 243.69750977 C353 246 353 246 351 247.98901367 C348.83197503 250.16894796 347.28008719 252.40108869 345.6171875 254.984375 C345.00746094 255.91894531 344.39773438 256.85351562 343.76953125 257.81640625 C342.4970898 259.78672281 341.22627927 261.75809351 339.95703125 263.73046875 C339.34988281 264.65988281 338.74273438 265.58929688 338.1171875 266.546875 C337.56659668 267.40120117 337.01600586 268.25552734 336.44873047 269.13574219 C335.97064941 269.75094727 335.49256836 270.36615234 335 271 C334.34 271 333.68 271 333 271 C332.73574219 271.7209082 332.47148438 272.44181641 332.19921875 273.18457031 C330.97664199 276.05483805 329.53832522 278.45122598 327.8125 281.046875 C327.19632813 281.97371094 326.58015625 282.90054687 325.9453125 283.85546875 C325.30335938 284.81066406 324.66140625 285.76585937 324 286.75 C323.35804688 287.72066406 322.71609375 288.69132812 322.0546875 289.69140625 C321.43851563 290.61308594 320.82234375 291.53476562 320.1875 292.484375 C319.62417969 293.32709961 319.06085938 294.16982422 318.48046875 295.03808594 C317 297 317 297 315 298 C314.54907563 301.9486039 314.54907563 301.9486039 316.78417969 303.94287109 C317.51540039 304.62172363 318.24662109 305.30057617 319 306 C320.19095856 307.60923177 321.34056723 309.2496634 322.453125 310.9140625 C323.071875 311.83960938 323.690625 312.76515625 324.328125 313.71875 C324.96234375 314.6778125 325.5965625 315.636875 326.25 316.625 C326.8996875 317.59179688 327.549375 318.55859375 328.21875 319.5546875 C328.83234375 320.47765625 329.4459375 321.400625 330.078125 322.3515625 C330.63918945 323.19541504 331.20025391 324.03926758 331.77832031 324.90869141 C333 327 333 327 333 329 C333.99 329.33 334.98 329.66 336 330 C337.65405273 332.16137695 337.65405273 332.16137695 339.43359375 334.98828125 C340.4071582 336.51291992 340.4071582 336.51291992 341.40039062 338.06835938 C342.40875977 339.67420898 342.40875977 339.67420898 343.4375 341.3125 C344.76493933 343.41566569 346.09681665 345.51603829 347.43359375 347.61328125 C348.02197021 348.54954346 348.61034668 349.48580566 349.21655273 350.45043945 C350.95872739 352.94099796 352.84483913 354.86912858 355 357 C356.19095856 358.60923177 357.34056723 360.2496634 358.453125 361.9140625 C359.071875 362.83960938 359.690625 363.76515625 360.328125 364.71875 C360.96234375 365.6778125 361.5965625 366.636875 362.25 367.625 C362.8996875 368.59179688 363.549375 369.55859375 364.21875 370.5546875 C364.83234375 371.47765625 365.4459375 372.400625 366.078125 373.3515625 C366.63918945 374.19541504 367.20025391 375.03926758 367.77832031 375.90869141 C369 378 369 378 369 380 C369.99 380.33 370.98 380.66 372 381 C373.65405273 383.16137695 373.65405273 383.16137695 375.43359375 385.98828125 C376.4071582 387.51291992 376.4071582 387.51291992 377.40039062 389.06835938 C378.40875977 390.67420898 378.40875977 390.67420898 379.4375 392.3125 C380.76493933 394.41566569 382.09681665 396.51603829 383.43359375 398.61328125 C384.02197021 399.54954346 384.61034668 400.48580566 385.21655273 401.45043945 C386.95872739 403.94099796 388.84483913 405.86912858 391 408 C392.19095856 409.60923177 393.34056723 411.2496634 394.453125 412.9140625 C395.071875 413.83960938 395.690625 414.76515625 396.328125 415.71875 C396.96234375 416.6778125 397.5965625 417.636875 398.25 418.625 C398.8996875 419.59179688 399.549375 420.55859375 400.21875 421.5546875 C400.83234375 422.47765625 401.4459375 423.400625 402.078125 424.3515625 C402.63918945 425.19541504 403.20025391 426.03926758 403.77832031 426.90869141 C405 429 405 429 405 431 C405.99 431.33 406.98 431.66 408 432 C409.65405273 434.16137695 409.65405273 434.16137695 411.43359375 436.98828125 C412.4071582 438.51291992 412.4071582 438.51291992 413.40039062 440.06835938 C414.40875977 441.67420898 414.40875977 441.67420898 415.4375 443.3125 C416.76493933 445.41566569 418.09681665 447.51603829 419.43359375 449.61328125 C420.02197021 450.54954346 420.61034668 451.48580566 421.21655273 452.45043945 C422.95838286 454.94050544 424.85519977 456.85991765 427 459 C428.22192269 460.72959444 429.39659402 462.49319301 430.53125 464.28125 C431.17707031 465.28800781 431.82289063 466.29476563 432.48828125 467.33203125 C433.82942708 469.44401042 435.17057292 471.55598958 436.51171875 473.66796875 C437.15753906 474.67472656 437.80335938 475.68148438 438.46875 476.71875 C439.05076172 477.63591797 439.63277344 478.55308594 440.23242188 479.49804688 C441.97156412 481.95974988 443.86450798 483.88384552 446 486 C447.19095856 487.60923177 448.34056723 489.2496634 449.453125 490.9140625 C450.071875 491.83960938 450.690625 492.76515625 451.328125 493.71875 C451.96234375 494.6778125 452.5965625 495.636875 453.25 496.625 C453.8996875 497.59179688 454.549375 498.55859375 455.21875 499.5546875 C455.83234375 500.47765625 456.4459375 501.400625 457.078125 502.3515625 C457.63918945 503.19541504 458.20025391 504.03926758 458.77832031 504.90869141 C460 507 460 507 460 509 C460.99 509.33 461.98 509.66 463 510 C464.65405273 512.16137695 464.65405273 512.16137695 466.43359375 514.98828125 C467.08263672 516.00470703 467.73167969 517.02113281 468.40039062 518.06835938 C469.40875977 519.67420898 469.40875977 519.67420898 470.4375 521.3125 C471.76493933 523.41566569 473.09681665 525.51603829 474.43359375 527.61328125 C475.02197021 528.54954346 475.61034668 529.48580566 476.21655273 530.45043945 C477.95872739 532.94099796 479.84483913 534.86912858 482 537 C483.19095856 538.60923177 484.34056723 540.2496634 485.453125 541.9140625 C486.071875 542.83960938 486.690625 543.76515625 487.328125 544.71875 C487.96234375 545.6778125 488.5965625 546.636875 489.25 547.625 C489.8996875 548.59179688 490.549375 549.55859375 491.21875 550.5546875 C491.83234375 551.47765625 492.4459375 552.400625 493.078125 553.3515625 C493.63918945 554.19541504 494.20025391 555.03926758 494.77832031 555.90869141 C496 558 496 558 496 560 C496.99 560.33 497.98 560.66 499 561 C500.65405273 563.16137695 500.65405273 563.16137695 502.43359375 565.98828125 C503.08263672 567.00470703 503.73167969 568.02113281 504.40039062 569.06835938 C505.40875977 570.67420898 505.40875977 570.67420898 506.4375 572.3125 C507.76493933 574.41566569 509.09681665 576.51603829 510.43359375 578.61328125 C511.02197021 579.54954346 511.61034668 580.48580566 512.21655273 581.45043945 C513.95523212 583.93600123 515.81388834 585.90841984 518 588 C519.14775493 589.48821258 520.25368719 591.0097497 521.3125 592.5625 C521.84488281 593.32691406 522.37726562 594.09132813 522.92578125 594.87890625 C523.45751953 595.92884766 523.45751953 595.92884766 524 597 C523.67 597.99 523.34 598.98 523 600 C509.82205396 600.20863806 496.6445015 600.36849999 483.46523952 600.46630955 C477.3452917 600.51325691 471.2264747 600.57692083 465.10717773 600.67895508 C459.20024084 600.77683067 453.29439065 600.83057609 447.3867054 600.85389519 C445.13432773 600.87050999 442.88200881 600.90295681 440.63009453 600.95157051 C437.47141503 601.01703988 434.31720908 601.02589768 431.15795898 601.02172852 C429.76504639 601.07026474 429.76504639 601.07026474 428.34399414 601.11978149 C424.27406876 601.06176216 421.94150621 600.87533022 418.889925 598.03823662 C417.096365 595.76163643 415.51673379 593.46775974 414 591 C413.31550781 589.96230469 412.63101562 588.92460938 411.92578125 587.85546875 C410.84240324 586.06382909 409.75907055 584.27216204 408.67578125 582.48046875 C407.11008859 579.98395561 407.11008859 579.98395561 405.11108398 578.15209961 C402.92990782 575.92854602 401.27635771 573.67326334 399.546875 571.0859375 C398.928125 570.16039062 398.309375 569.23484375 397.671875 568.28125 C397.03765625 567.3221875 396.4034375 566.363125 395.75 565.375 C395.1003125 564.40820312 394.450625 563.44140625 393.78125 562.4453125 C393.16765625 561.52234375 392.5540625 560.599375 391.921875 559.6484375 C391.36081055 558.80458496 390.79974609 557.96073242 390.22167969 557.09130859 C389 555 389 555 389 553 C388.01 552.67 387.02 552.34 386 552 C384.34594727 549.83862305 384.34594727 549.83862305 382.56640625 547.01171875 C381.91736328 545.99529297 381.26832031 544.97886719 380.59960938 543.93164062 C379.59124023 542.32579102 379.59124023 542.32579102 378.5625 540.6875 C377.23506067 538.58433431 375.90318335 536.48396171 374.56640625 534.38671875 C373.97802979 533.45045654 373.38965332 532.51419434 372.78344727 531.54956055 C371.04127261 529.05900204 369.15516087 527.13087142 367 525 C365.80904144 523.39076823 364.65943277 521.7503366 363.546875 520.0859375 C362.928125 519.16039062 362.309375 518.23484375 361.671875 517.28125 C361.03765625 516.3221875 360.4034375 515.363125 359.75 514.375 C359.1003125 513.40820312 358.450625 512.44140625 357.78125 511.4453125 C357.16765625 510.52234375 356.5540625 509.599375 355.921875 508.6484375 C355.36081055 507.80458496 354.79974609 506.96073242 354.22167969 506.09130859 C353 504 353 504 353 502 C352.01 501.67 351.02 501.34 350 501 C348.34594727 498.83862305 348.34594727 498.83862305 346.56640625 496.01171875 C345.5928418 494.48708008 345.5928418 494.48708008 344.59960938 492.93164062 C343.59124023 491.32579102 343.59124023 491.32579102 342.5625 489.6875 C341.23506067 487.58433431 339.90318335 485.48396171 338.56640625 483.38671875 C337.97802979 482.45045654 337.38965332 481.51419434 336.78344727 480.54956055 C335.04127261 478.05900204 333.15516087 476.13087142 331 474 C329.80904144 472.39076823 328.65943277 470.7503366 327.546875 469.0859375 C326.928125 468.16039062 326.309375 467.23484375 325.671875 466.28125 C325.03765625 465.3221875 324.4034375 464.363125 323.75 463.375 C323.1003125 462.40820312 322.450625 461.44140625 321.78125 460.4453125 C321.16765625 459.52234375 320.5540625 458.599375 319.921875 457.6484375 C319.36081055 456.80458496 318.79974609 455.96073242 318.22167969 455.09130859 C317 453 317 453 317 451 C316.01 450.67 315.02 450.34 314 450 C312.34594727 447.83862305 312.34594727 447.83862305 310.56640625 445.01171875 C309.5928418 443.48708008 309.5928418 443.48708008 308.59960938 441.93164062 C307.59124023 440.32579102 307.59124023 440.32579102 306.5625 438.6875 C305.23506067 436.58433431 303.90318335 434.48396171 302.56640625 432.38671875 C301.97802979 431.45045654 301.38965332 430.51419434 300.78344727 429.54956055 C299.04127261 427.05900204 297.15516087 425.13087142 295 423 C293.80904144 421.39076823 292.65943277 419.7503366 291.546875 418.0859375 C290.928125 417.16039062 290.309375 416.23484375 289.671875 415.28125 C289.03765625 414.3221875 288.4034375 413.363125 287.75 412.375 C287.1003125 411.40820312 286.450625 410.44140625 285.78125 409.4453125 C285.16765625 408.52234375 284.5540625 407.599375 283.921875 406.6484375 C283.36081055 405.80458496 282.79974609 404.96073242 282.22167969 404.09130859 C281 402 281 402 281 400 C280.01 399.67 279.02 399.34 278 399 C276.33007813 396.77514648 276.33007813 396.77514648 274.53125 393.87109375 C273.55091797 392.31938477 273.55091797 392.31938477 272.55078125 390.73632812 C271.18184182 388.53429128 269.81465794 386.33116211 268.44921875 384.12695312 C267.79566406 383.09376953 267.14210938 382.06058594 266.46875 380.99609375 C265.57833008 379.56027954 265.57833008 379.56027954 264.66992188 378.09545898 C264.11884766 377.40395752 263.56777344 376.71245605 263 376 C262.01 376 261.02 376 260 376 C258.09797116 378.2743219 258.09797116 378.2743219 256.27734375 381.25 C255.22256836 382.87421875 255.22256836 382.87421875 254.14648438 384.53125 C253.40927462 385.68693808 252.67295707 386.84319575 251.9375 388 C250.49653463 390.25558861 249.04576978 392.50394331 247.58984375 394.75 C246.94909912 395.75546875 246.30835449 396.7609375 245.64819336 397.796875 C245.10428955 398.52390625 244.56038574 399.2509375 244 400 C243.34 400 242.68 400 242 400 C241.73429199 400.7230835 241.46858398 401.44616699 241.19482422 402.19116211 C239.99060652 405.02208255 238.5842908 407.38221757 236.8828125 409.94140625 C236.27566406 410.85470703 235.66851562 411.76800781 235.04296875 412.70898438 C234.41003906 413.65064453 233.77710938 414.59230469 233.125 415.5625 C232.49980469 416.50802734 231.87460937 417.45355469 231.23046875 418.42773438 C230.62074219 419.33974609 230.01101563 420.25175781 229.3828125 421.19140625 C228.82996582 422.01842041 228.27711914 422.84543457 227.70751953 423.69750977 C226 426 226 426 224 427.98901367 C221.83197503 430.16894796 220.28008719 432.40108869 218.6171875 434.984375 C218.00746094 435.91894531 217.39773438 436.85351562 216.76953125 437.81640625 C215.4970898 439.78672281 214.22627927 441.75809351 212.95703125 443.73046875 C212.34988281 444.65988281 211.74273437 445.58929687 211.1171875 446.546875 C210.56659668 447.40120117 210.01600586 448.25552734 209.44873047 449.13574219 C208.97064941 449.75094727 208.49256836 450.36615234 208 451 C207.34 451 206.68 451 206 451 C205.73429199 451.7230835 205.46858398 452.44616699 205.19482422 453.19116211 C203.99060652 456.02208255 202.5842908 458.38221757 200.8828125 460.94140625 C200.27566406 461.85470703 199.66851562 462.76800781 199.04296875 463.70898438 C198.41003906 464.65064453 197.77710938 465.59230469 197.125 466.5625 C196.49980469 467.50802734 195.87460937 468.45355469 195.23046875 469.42773438 C194.62074219 470.33974609 194.01101563 471.25175781 193.3828125 472.19140625 C192.82996582 473.01842041 192.27711914 473.84543457 191.70751953 474.69750977 C190 477 190 477 188 478.98901367 C185.83197503 481.16894796 184.28008719 483.40108869 182.6171875 485.984375 C182.00746094 486.91894531 181.39773438 487.85351562 180.76953125 488.81640625 C179.4970898 490.78672281 178.22627927 492.75809351 176.95703125 494.73046875 C176.34988281 495.65988281 175.74273437 496.58929687 175.1171875 497.546875 C174.56659668 498.40120117 174.01600586 499.25552734 173.44873047 500.13574219 C172.97064941 500.75094727 172.49256836 501.36615234 172 502 C171.34 502 170.68 502 170 502 C169.73429199 502.7230835 169.46858398 503.44616699 169.19482422 504.19116211 C167.99060652 507.02208255 166.5842908 509.38221757 164.8828125 511.94140625 C163.97208984 513.31135742 163.97208984 513.31135742 163.04296875 514.70898438 C162.41003906 515.65064453 161.77710938 516.59230469 161.125 517.5625 C160.49980469 518.50802734 159.87460937 519.45355469 159.23046875 520.42773438 C158.62074219 521.33974609 158.01101563 522.25175781 157.3828125 523.19140625 C156.82996582 524.01842041 156.27711914 524.84543457 155.70751953 525.69750977 C154 528 154 528 152 529.98901367 C149.83197503 532.16894796 148.28008719 534.40108869 146.6171875 536.984375 C146.00746094 537.91894531 145.39773438 538.85351562 144.76953125 539.81640625 C143.4970898 541.78672281 142.22627927 543.75809351 140.95703125 545.73046875 C140.04630859 547.12458984 140.04630859 547.12458984 139.1171875 548.546875 C138.56659668 549.40120117 138.01600586 550.25552734 137.44873047 551.13574219 C136.73160889 552.0585498 136.73160889 552.0585498 136 553 C135.34 553 134.68 553 134 553 C133.73429199 553.7230835 133.46858398 554.44616699 133.19482422 555.19116211 C131.99060652 558.02208255 130.5842908 560.38221757 128.8828125 562.94140625 C127.97208984 564.31135742 127.97208984 564.31135742 127.04296875 565.70898438 C126.41003906 566.65064453 125.77710938 567.59230469 125.125 568.5625 C124.18720703 569.98079102 124.18720703 569.98079102 123.23046875 571.42773438 C122.62074219 572.33974609 122.01101563 573.25175781 121.3828125 574.19140625 C120.82996582 575.01842041 120.27711914 575.84543457 119.70751953 576.69750977 C117.97432538 579.03462073 116.06516393 580.95686656 114 583 C113.12609214 584.17316957 112.28753771 585.37377595 111.4921875 586.6015625 C111.06292969 587.25640625 110.63367188 587.91125 110.19140625 588.5859375 C109.75699219 589.25882813 109.32257813 589.93171875 108.875 590.625 C107.99949317 591.97271897 107.1219734 593.31913299 106.2421875 594.6640625 C105.8591748 595.25654785 105.47616211 595.8490332 105.08154297 596.45947266 C104 598 104 598 102 600 C100.16093254 600.24609566 100.16093254 600.24609566 97.88717651 600.24050903 C96.59568695 600.24463303 96.59568695 600.24463303 95.27810669 600.24884033 C94.33152191 600.24164978 93.38493713 600.23445923 92.40966797 600.22705078 C90.91693359 600.22748886 90.91693359 600.22748886 89.39404297 600.22793579 C86.09333684 600.2265386 82.79285437 600.21095904 79.4921875 600.1953125 C77.208182 600.19158376 74.9241749 600.18873613 72.64016724 600.18673706 C66.6198487 600.1790897 60.59962621 600.15943174 54.5793457 600.1373291 C48.4396291 600.1168944 42.29989703 600.10774043 36.16015625 600.09765625 C24.10672857 600.07618689 12.05337226 600.04203767 0 600 C0 595.47250778 0.82660943 594.20636205 3.25 590.5 C3.85328125 589.5615625 4.4565625 588.623125 5.078125 587.65625 C7 585 7 585 8.90869141 583.14550781 C11.09262345 580.90497608 12.69085927 578.64404549 14.3828125 576.015625 C15.29740234 574.61376953 15.29740234 574.61376953 16.23046875 573.18359375 C17.5029102 571.21327719 18.77372073 569.24190649 20.04296875 567.26953125 C20.65011719 566.34011719 21.25726563 565.41070313 21.8828125 564.453125 C22.43340332 563.59879883 22.98399414 562.74447266 23.55126953 561.86425781 C24.26839111 560.9414502 24.26839111 560.9414502 25 560 C25.66 560 26.32 560 27 560 C27.26570801 559.2769165 27.53141602 558.55383301 27.80517578 557.80883789 C29.00939348 554.97791745 30.4157092 552.61778243 32.1171875 550.05859375 C33.02791016 548.68864258 33.02791016 548.68864258 33.95703125 547.29101562 C34.90642578 545.87852539 34.90642578 545.87852539 35.875 544.4375 C36.81279297 543.01920898 36.81279297 543.01920898 37.76953125 541.57226562 C38.37925781 540.66025391 38.98898437 539.74824219 39.6171875 538.80859375 C40.17003418 537.98157959 40.72288086 537.15456543 41.29248047 536.30249023 C43 534 43 534 45 532.01098633 C47.16802497 529.83105204 48.71991281 527.59891131 50.3828125 525.015625 C51.29740234 523.61376953 51.29740234 523.61376953 52.23046875 522.18359375 C53.5029102 520.21327719 54.77372073 518.24190649 56.04296875 516.26953125 C56.95369141 514.87541016 56.95369141 514.87541016 57.8828125 513.453125 C58.43340332 512.59879883 58.98399414 511.74447266 59.55126953 510.86425781 C60.02935059 510.24905273 60.50743164 509.63384766 61 509 C61.66 509 62.32 509 63 509 C63.26570801 508.2769165 63.53141602 507.55383301 63.80517578 506.80883789 C65.00939348 503.97791745 66.4157092 501.61778243 68.1171875 499.05859375 C68.72433594 498.14529297 69.33148438 497.23199219 69.95703125 496.29101562 C70.58996094 495.34935547 71.22289062 494.40769531 71.875 493.4375 C72.50019531 492.49197266 73.12539063 491.54644531 73.76953125 490.57226562 C74.37925781 489.66025391 74.98898437 488.74824219 75.6171875 487.80859375 C76.17003418 486.98157959 76.72288086 486.15456543 77.29248047 485.30249023 C79 483 79 483 80.99072266 481.02954102 C83.23758299 478.76002097 84.82089505 476.41402695 86.53125 473.71875 C87.17707031 472.71199219 87.82289063 471.70523437 88.48828125 470.66796875 C89.15214844 469.62253906 89.81601562 468.57710937 90.5 467.5 C91.81823358 465.42410207 93.14099171 463.35106882 94.46875 461.28125 C95.34176758 459.90549805 95.34176758 459.90549805 96.23242188 458.50195312 C97.97104789 456.04098083 99.86997062 454.12010283 102 452 C103.16992243 450.36806359 104.29596418 448.70402533 105.3828125 447.015625 C106.29740234 445.61376953 106.29740234 445.61376953 107.23046875 444.18359375 C108.5029102 442.21327719 109.77372073 440.24190649 111.04296875 438.26953125 C111.65011719 437.34011719 112.25726563 436.41070313 112.8828125 435.453125 C113.43340332 434.59879883 113.98399414 433.74447266 114.55126953 432.86425781 C115.02935059 432.24905273 115.50743164 431.63384766 116 431 C116.66 431 117.32 431 118 431 C118.26570801 430.2769165 118.53141602 429.55383301 118.80517578 428.80883789 C120.00939348 425.97791745 121.4157092 423.61778243 123.1171875 421.05859375 C123.72433594 420.14529297 124.33148438 419.23199219 124.95703125 418.29101562 C125.58996094 417.34935547 126.22289062 416.40769531 126.875 415.4375 C127.50019531 414.49197266 128.12539063 413.54644531 128.76953125 412.57226562 C129.37925781 411.66025391 129.98898437 410.74824219 130.6171875 409.80859375 C131.17003418 408.98157959 131.72288086 408.15456543 132.29248047 407.30249023 C134 405 134 405 136 403.01098633 C138.16802497 400.83105204 139.71991281 398.59891131 141.3828125 396.015625 C141.99253906 395.08105469 142.60226562 394.14648438 143.23046875 393.18359375 C144.5029102 391.21327719 145.77372073 389.24190649 147.04296875 387.26953125 C147.65011719 386.34011719 148.25726563 385.41070313 148.8828125 384.453125 C149.43340332 383.59879883 149.98399414 382.74447266 150.55126953 381.86425781 C151.02935059 381.24905273 151.50743164 380.63384766 152 380 C152.66 380 153.32 380 154 380 C154.26570801 379.2769165 154.53141602 378.55383301 154.80517578 377.80883789 C156.00939348 374.97791745 157.4157092 372.61778243 159.1171875 370.05859375 C159.72433594 369.14529297 160.33148438 368.23199219 160.95703125 367.29101562 C161.58996094 366.34935547 162.22289062 365.40769531 162.875 364.4375 C163.50019531 363.49197266 164.12539063 362.54644531 164.76953125 361.57226562 C165.37925781 360.66025391 165.98898437 359.74824219 166.6171875 358.80859375 C167.17003418 357.98157959 167.72288086 357.15456543 168.29248047 356.30249023 C170 354 170 354 172 352.01098633 C174.16802497 349.83105204 175.71991281 347.59891131 177.3828125 345.015625 C177.99253906 344.08105469 178.60226562 343.14648438 179.23046875 342.18359375 C180.5029102 340.21327719 181.77372073 338.24190649 183.04296875 336.26953125 C183.65011719 335.34011719 184.25726563 334.41070313 184.8828125 333.453125 C185.43340332 332.59879883 185.98399414 331.74447266 186.55126953 330.86425781 C187.02935059 330.24905273 187.50743164 329.63384766 188 329 C188.66 329 189.32 329 190 329 C190.26425781 328.2790918 190.52851563 327.55818359 190.80078125 326.81542969 C192.02335801 323.94516195 193.46167478 321.54877402 195.1875 318.953125 C195.80367187 318.02628906 196.41984375 317.09945313 197.0546875 316.14453125 C197.69664062 315.18933594 198.33859375 314.23414063 199 313.25 C199.64195312 312.27933594 200.28390625 311.30867188 200.9453125 310.30859375 C201.56148437 309.38691406 202.17765625 308.46523438 202.8125 307.515625 C203.37582031 306.67290039 203.93914062 305.83017578 204.51953125 304.96191406 C206 303 206 303 208 302 C208.45092437 298.0513961 208.45092437 298.0513961 206.21582031 296.05712891 C205.48459961 295.37827637 204.75337891 294.69942383 204 294 C202.80904144 292.39076823 201.65943277 290.7503366 200.546875 289.0859375 C199.928125 288.16039062 199.309375 287.23484375 198.671875 286.28125 C198.03765625 285.3221875 197.4034375 284.363125 196.75 283.375 C195.77546875 281.92480469 195.77546875 281.92480469 194.78125 280.4453125 C194.16765625 279.52234375 193.5540625 278.599375 192.921875 277.6484375 C192.36081055 276.80458496 191.79974609 275.96073242 191.22167969 275.09130859 C190 273 190 273 190 271 C189.01 270.67 188.02 270.34 187 270 C185.34594727 267.83862305 185.34594727 267.83862305 183.56640625 265.01171875 C182.5928418 263.48708008 182.5928418 263.48708008 181.59960938 261.93164062 C180.59124023 260.32579102 180.59124023 260.32579102 179.5625 258.6875 C178.23506067 256.58433431 176.90318335 254.48396171 175.56640625 252.38671875 C174.97802979 251.45045654 174.38965332 250.51419434 173.78344727 249.54956055 C172.04127261 247.05900204 170.15516087 245.13087142 168 243 C166.80904144 241.39076823 165.65943277 239.7503366 164.546875 238.0859375 C163.61875 236.69761719 163.61875 236.69761719 162.671875 235.28125 C162.03765625 234.3221875 161.4034375 233.363125 160.75 232.375 C159.77546875 230.92480469 159.77546875 230.92480469 158.78125 229.4453125 C158.16765625 228.52234375 157.5540625 227.599375 156.921875 226.6484375 C156.36081055 225.80458496 155.79974609 224.96073242 155.22167969 224.09130859 C154 222 154 222 154 220 C153.01 219.67 152.02 219.34 151 219 C149.34594727 216.83862305 149.34594727 216.83862305 147.56640625 214.01171875 C146.5928418 212.48708008 146.5928418 212.48708008 145.59960938 210.93164062 C144.92736328 209.86107422 144.25511719 208.79050781 143.5625 207.6875 C142.23506067 205.58433431 140.90318335 203.48396171 139.56640625 201.38671875 C138.97802979 200.45045654 138.38965332 199.51419434 137.78344727 198.54956055 C136.04127261 196.05900204 134.15516087 194.13087142 132 192 C130.80904144 190.39076823 129.65943277 188.7503366 128.546875 187.0859375 C127.61875 185.69761719 127.61875 185.69761719 126.671875 184.28125 C126.03765625 183.3221875 125.4034375 182.363125 124.75 181.375 C123.77546875 179.92480469 123.77546875 179.92480469 122.78125 178.4453125 C122.16765625 177.52234375 121.5540625 176.599375 120.921875 175.6484375 C120.36081055 174.80458496 119.79974609 173.96073242 119.22167969 173.09130859 C118 171 118 171 118 169 C117.01 168.67 116.02 168.34 115 168 C113.34594727 165.83862305 113.34594727 165.83862305 111.56640625 163.01171875 C110.91736328 161.99529297 110.26832031 160.97886719 109.59960938 159.93164062 C108.92736328 158.86107422 108.25511719 157.79050781 107.5625 156.6875 C106.23506067 154.58433431 104.90318335 152.48396171 103.56640625 150.38671875 C102.97802979 149.45045654 102.38965332 148.51419434 101.78344727 147.54956055 C100.04161714 145.05949456 98.14480023 143.14008235 96 141 C94.77807731 139.27040556 93.60340598 137.50680699 92.46875 135.71875 C91.82292969 134.71199219 91.17710937 133.70523438 90.51171875 132.66796875 C89.17057292 130.55598958 87.82942708 128.44401042 86.48828125 126.33203125 C85.84246094 125.32527344 85.19664062 124.31851563 84.53125 123.28125 C83.65823242 121.90549805 83.65823242 121.90549805 82.76757812 120.50195312 C81.02843588 118.04025012 79.13549202 116.11615448 77 114 C75.80904144 112.39076823 74.65943277 110.7503366 73.546875 109.0859375 C72.928125 108.16039062 72.309375 107.23484375 71.671875 106.28125 C71.03765625 105.3221875 70.4034375 104.363125 69.75 103.375 C68.77546875 101.92480469 68.77546875 101.92480469 67.78125 100.4453125 C67.16765625 99.52234375 66.5540625 98.599375 65.921875 97.6484375 C65.36081055 96.80458496 64.79974609 95.96073242 64.22167969 95.09130859 C63 93 63 93 63 91 C62.01 90.67 61.02 90.34 60 90 C58.34594727 87.83862305 58.34594727 87.83862305 56.56640625 85.01171875 C55.91736328 83.99529297 55.26832031 82.97886719 54.59960938 81.93164062 C53.92736328 80.86107422 53.25511719 79.79050781 52.5625 78.6875 C51.23506067 76.58433431 49.90318335 74.48396171 48.56640625 72.38671875 C47.97802979 71.45045654 47.38965332 70.51419434 46.78344727 69.54956055 C45.04127261 67.05900204 43.15516087 65.13087142 41 63 C39.80904144 61.39076823 38.65943277 59.7503366 37.546875 58.0859375 C36.928125 57.16039062 36.309375 56.23484375 35.671875 55.28125 C35.03765625 54.3221875 34.4034375 53.363125 33.75 52.375 C32.77546875 50.92480469 32.77546875 50.92480469 31.78125 49.4453125 C31.16765625 48.52234375 30.5540625 47.599375 29.921875 46.6484375 C29.36081055 45.80458496 28.79974609 44.96073242 28.22167969 44.09130859 C27 42 27 42 27 40 C25.515 39.505 25.515 39.505 24 39 C22.34594727 36.83862305 22.34594727 36.83862305 20.56640625 34.01171875 C19.91736328 32.99529297 19.26832031 31.97886719 18.59960938 30.93164062 C17.92736328 29.86107422 17.25511719 28.79050781 16.5625 27.6875 C15.23506067 25.58433431 13.90318335 23.48396171 12.56640625 21.38671875 C11.97802979 20.45045654 11.38965332 19.51419434 10.78344727 18.54956055 C9.04476788 16.06399877 7.18611166 14.09158016 5 12 C3.85224507 10.51178742 2.74631281 8.9902503 1.6875 7.4375 C1.15511719 6.67308594 0.62273437 5.90867188 0.07421875 5.12109375 C-0.28027344 4.42113281 -0.63476562 3.72117188 -1 3 C-0.67 2.01 -0.34 1.02 0 0 Z M27 15 C28.08878929 16.88938079 29.18051667 18.77706861 30.2734375 20.6640625 C30.88106934 21.7154541 31.48870117 22.7668457 32.11474609 23.85009766 C35.48026674 29.47324546 39.15534047 34.82786834 43.3984375 39.82421875 C46.22199704 43.17925932 48.60989116 46.7664422 51 50.4375 C52.65603884 52.9655468 54.3203015 55.48760267 56 58 C56.44730469 58.67047363 56.89460938 59.34094727 57.35546875 60.03173828 C58.51766488 61.72518755 59.75322345 63.36781786 61 65 C61.66 65 62.32 65 63 65 C63.25265625 65.70640625 63.5053125 66.4128125 63.765625 67.140625 C65.12812499 70.29679587 66.8125614 72.91142717 68.75 75.75 C71.83016438 80.27504149 74.83998647 84.83171053 77.7734375 89.453125 C78.17820312 89.96359375 78.58296875 90.4740625 79 91 C79.66 91 80.32 91 81 91 C81.26554687 91.556875 81.53109375 92.11375 81.8046875 92.6875 C86.38478783 101.54834769 92.37598181 112.44518323 99.46826172 119.45019531 C100.99189433 120.99179873 102.12068889 122.51694102 103.3046875 124.328125 C103.72363281 124.96363281 104.14257812 125.59914063 104.57421875 126.25390625 C105.00347656 126.91261719 105.43273437 127.57132812 105.875 128.25 C107.57263976 130.8405879 109.27863938 133.42510435 111 136 C111.45020508 136.67482422 111.90041016 137.34964844 112.36425781 138.04492188 C113.5234854 139.73400917 114.75603805 141.37230741 116 143 C116.66 143 117.32 143 118 143 C118.26570801 143.7230835 118.53141602 144.44616699 118.80517578 145.19116211 C120.00939348 148.02208255 121.4157092 150.38221757 123.1171875 152.94140625 C123.72433594 153.85470703 124.33148438 154.76800781 124.95703125 155.70898438 C125.58996094 156.65064453 126.22289062 157.59230469 126.875 158.5625 C127.81279297 159.98079102 127.81279297 159.98079102 128.76953125 161.42773438 C129.37925781 162.33974609 129.98898437 163.25175781 130.6171875 164.19140625 C131.17003418 165.01842041 131.72288086 165.84543457 132.29248047 166.69750977 C133.94127726 169.04071289 133.94127726 169.04071289 136 170.98901367 C138.16802497 173.16894796 139.71991281 175.40108869 141.3828125 177.984375 C141.99253906 178.91894531 142.60226562 179.85351562 143.23046875 180.81640625 C144.5029102 182.78672281 145.77372073 184.75809351 147.04296875 186.73046875 C147.65011719 187.65988281 148.25726563 188.58929688 148.8828125 189.546875 C149.43340332 190.40120117 149.98399414 191.25552734 150.55126953 192.13574219 C151.02935059 192.75094727 151.50743164 193.36615234 152 194 C152.66 194 153.32 194 154 194 C154.22945313 194.67160156 154.45890625 195.34320313 154.6953125 196.03515625 C156.35698485 199.81123204 158.55157773 203.04042633 160.875 206.4375 C161.30941406 207.08009766 161.74382812 207.72269531 162.19140625 208.38476562 C163.04822044 209.6519758 163.90849229 210.91685602 164.77246094 212.17919922 C165.58014836 213.37723677 166.37052202 214.58716171 167.14160156 215.80908203 C168.04642523 217.2375965 169.01734831 218.62386225 170 220 C170.66 220 171.32 220 172 220 C172.26425781 220.55558594 172.52851563 221.11117187 172.80078125 221.68359375 C174.128209 224.24764801 175.62486118 226.63450971 177.1875 229.0625 C179.10240683 232.03858436 181.00983656 235.01586145 182.875 238.0234375 C183.473125 238.98507812 184.07125 239.94671875 184.6875 240.9375 C185.22761719 241.81277344 185.76773438 242.68804687 186.32421875 243.58984375 C187.90276937 246.0205434 187.90276937 246.0205434 189.89453125 247.85546875 C192.73075549 250.7443131 194.80047688 253.98906744 197 257.375 C197.42539062 258.02210938 197.85078125 258.66921875 198.2890625 259.3359375 C200.24583188 262.3131081 202.19163137 265.29660591 204.125 268.2890625 C205.80672388 270.89753543 205.80672388 270.89753543 207.47314453 272.46142578 C208.9978895 273.9978733 210.12224692 275.51932436 211.3046875 277.328125 C211.93310547 278.28138672 211.93310547 278.28138672 212.57421875 279.25390625 C213.00347656 279.91261719 213.43273437 280.57132812 213.875 281.25 C215.57263976 283.8405879 217.27863938 286.42510435 219 289 C219.45020508 289.67482422 219.90041016 290.34964844 220.36425781 291.04492188 C221.5234854 292.73400917 222.75603805 294.37230741 224 296 C224.66 296 225.32 296 226 296 C226.25265625 296.70640625 226.5053125 297.4128125 226.765625 298.140625 C228.12812499 301.29679587 229.8125614 303.91142717 231.75 306.75 C234.83016438 311.27504149 237.83998647 315.83171053 240.7734375 320.453125 C241.17820312 320.96359375 241.58296875 321.4740625 242 322 C242.66 322 243.32 322 244 322 C244.26425781 322.55558594 244.52851563 323.11117188 244.80078125 323.68359375 C246.128209 326.24764801 247.62486118 328.63450971 249.1875 331.0625 C251.10240683 334.03858436 253.00983656 337.01586145 254.875 340.0234375 C255.473125 340.98507812 256.07125 341.94671875 256.6875 342.9375 C257.22761719 343.81277344 257.76773438 344.68804688 258.32421875 345.58984375 C259.90330236 348.02129174 259.90330236 348.02129174 261.8984375 349.859375 C264.71447299 352.72775316 266.75945955 355.94704393 268.9375 359.3125 C273.78778114 366.78287569 273.78778114 366.78287569 279 374 C279.66 374 280.32 374 281 374 C281.25265625 374.70640625 281.5053125 375.4128125 281.765625 376.140625 C283.12812499 379.29679587 284.8125614 381.91142717 286.75 384.75 C289.83016438 389.27504149 292.83998647 393.83171053 295.7734375 398.453125 C296.38058594 399.21882812 296.38058594 399.21882812 297 400 C297.66 400 298.32 400 299 400 C299.26425781 400.55558594 299.52851562 401.11117188 299.80078125 401.68359375 C301.128209 404.24764801 302.62486118 406.63450971 304.1875 409.0625 C306.10240683 412.03858436 308.00983656 415.01586145 309.875 418.0234375 C310.473125 418.98507812 311.07125 419.94671875 311.6875 420.9375 C312.49767578 422.25041016 312.49767578 422.25041016 313.32421875 423.58984375 C314.90276937 426.0205434 314.90276937 426.0205434 316.89453125 427.85546875 C319.73075549 430.7443131 321.80047688 433.98906744 324 437.375 C324.42539062 438.02210938 324.85078125 438.66921875 325.2890625 439.3359375 C327.24583188 442.3131081 329.19163137 445.29660591 331.125 448.2890625 C332.80672388 450.89753543 332.80672388 450.89753543 334.47314453 452.46142578 C335.9978895 453.9978733 337.12224692 455.51932436 338.3046875 457.328125 C338.93310547 458.28138672 338.93310547 458.28138672 339.57421875 459.25390625 C340.00347656 459.91261719 340.43273437 460.57132813 340.875 461.25 C342.57263976 463.8405879 344.27863938 466.42510435 346 469 C346.45020508 469.67482422 346.90041016 470.34964844 347.36425781 471.04492188 C348.5234854 472.73400917 349.75603805 474.37230741 351 476 C351.66 476 352.32 476 353 476 C353.25265625 476.70640625 353.5053125 477.4128125 353.765625 478.140625 C355.12812499 481.29679587 356.8125614 483.91142717 358.75 486.75 C361.83016438 491.27504149 364.83998647 495.83171053 367.7734375 500.453125 C368.38058594 501.21882812 368.38058594 501.21882812 369 502 C369.66 502 370.32 502 371 502 C371.26425781 502.55558594 371.52851562 503.11117188 371.80078125 503.68359375 C373.128209 506.24764801 374.62486118 508.63450971 376.1875 511.0625 C378.10240683 514.03858436 380.00983656 517.01586145 381.875 520.0234375 C382.473125 520.98507812 383.07125 521.94671875 383.6875 522.9375 C384.49767578 524.25041016 384.49767578 524.25041016 385.32421875 525.58984375 C386.90276937 528.0205434 386.90276937 528.0205434 388.89453125 529.85546875 C391.73075549 532.7443131 393.80047688 535.98906744 396 539.375 C396.42539062 540.02210938 396.85078125 540.66921875 397.2890625 541.3359375 C399.24583188 544.3131081 401.19163137 547.29660591 403.125 550.2890625 C404.80672388 552.89753543 404.80672388 552.89753543 406.47314453 554.46142578 C407.9978895 555.9978733 409.12224692 557.51932436 410.3046875 559.328125 C410.93310547 560.28138672 410.93310547 560.28138672 411.57421875 561.25390625 C412.21810547 562.24197266 412.21810547 562.24197266 412.875 563.25 C414.57263976 565.8405879 416.27863938 568.42510435 418 571 C418.67530762 572.01223633 418.67530762 572.01223633 419.36425781 573.04492188 C420.5234854 574.73400917 421.75603805 576.37230741 423 578 C423.66 578 424.32 578 425 578 C425.28875 578.78375 425.5775 579.5675 425.875 580.375 C426.84912254 583.09671632 426.84912254 583.09671632 429 585 C431.91502267 585.29379827 431.91502267 585.29379827 435.37744141 585.22705078 C436.03122269 585.22734283 436.68500397 585.22763489 437.3585968 585.22793579 C439.52305296 585.22654065 441.68716636 585.2109712 443.8515625 585.1953125 C445.35085868 585.19158302 446.8501573 585.18873574 448.34945679 585.18673706 C452.29836743 585.17909548 456.24713129 585.1594426 460.19598389 585.1373291 C464.22438572 585.1168819 468.25281124 585.10773776 472.28125 585.09765625 C480.18756741 585.07619711 488.09376545 585.04205495 496 585 C495.5246431 584.2539299 495.04928619 583.5078598 494.55952454 582.73918152 C493.93313583 581.75557144 493.30674713 580.77196136 492.66137695 579.75854492 C492.04164505 578.78559982 491.42191315 577.81265472 490.78340149 576.81022644 C489.31782519 574.50081867 487.86278443 572.18569906 486.41796875 569.86328125 C485.6745256 568.67965833 484.93103768 567.49606354 484.1875 566.3125 C483.80658203 565.69439453 483.42566406 565.07628906 483.03320312 564.43945312 C482.07534005 562.9246539 481.04412987 561.45667813 480 560 C479.34 560 478.68 560 478 560 C477.73574219 559.44441406 477.47148438 558.88882813 477.19921875 558.31640625 C475.871791 555.75235199 474.37513882 553.36549029 472.8125 550.9375 C470.89759317 547.96141564 468.99016344 544.98413855 467.125 541.9765625 C466.526875 541.01492188 465.92875 540.05328125 465.3125 539.0625 C464.50232422 537.74958984 464.50232422 537.74958984 463.67578125 536.41015625 C462.09723063 533.9794566 462.09723063 533.9794566 460.10546875 532.14453125 C457.26924451 529.2556869 455.19952312 526.01093256 453 522.625 C452.57460938 521.97789062 452.14921875 521.33078125 451.7109375 520.6640625 C449.75416812 517.6868919 447.80836863 514.70339409 445.875 511.7109375 C444.19254214 509.10212117 444.19254214 509.10212117 442.5246582 507.53417969 C439.98194105 504.97558328 438.15450779 501.88216685 436.1875 498.875 C435.74535156 498.20718506 435.30320312 497.53937012 434.84765625 496.85131836 C432.90624635 493.91685175 430.98258509 490.97286679 429.08203125 488.01171875 C428.55996094 487.20347656 428.03789063 486.39523437 427.5 485.5625 C427.0565625 484.86253906 426.613125 484.16257812 426.15625 483.44140625 C425.7746875 482.96574219 425.393125 482.49007813 425 482 C424.34 482 423.68 482 423 482 C422.73574219 481.44441406 422.47148438 480.88882812 422.19921875 480.31640625 C420.871791 477.75235199 419.37513882 475.36549029 417.8125 472.9375 C415.89759317 469.96141564 413.99016344 466.98413855 412.125 463.9765625 C411.526875 463.01492188 410.92875 462.05328125 410.3125 461.0625 C409.50232422 459.74958984 409.50232422 459.74958984 408.67578125 458.41015625 C407.09723063 455.9794566 407.09723063 455.9794566 405.10546875 454.14453125 C402.26924451 451.2556869 400.19952312 448.01093256 398 444.625 C397.57460938 443.97789062 397.14921875 443.33078125 396.7109375 442.6640625 C394.75416812 439.6868919 392.80836863 436.70339409 390.875 433.7109375 C389.19327612 431.10246457 389.19327612 431.10246457 387.52685547 429.53857422 C386.0021105 428.0021267 384.87775308 426.48067564 383.6953125 424.671875 C383.06689453 423.71861328 383.06689453 423.71861328 382.42578125 422.74609375 C381.99652344 422.08738281 381.56726563 421.42867187 381.125 420.75 C379.42736024 418.1594121 377.72136062 415.57489565 376 413 C375.54979492 412.32517578 375.09958984 411.65035156 374.63574219 410.95507812 C373.4765146 409.26599083 372.24396195 407.62769259 371 406 C370.34 406 369.68 406 369 406 C368.74734375 405.29359375 368.4946875 404.5871875 368.234375 403.859375 C366.87187501 400.70320413 365.1874386 398.08857283 363.25 395.25 C360.16983562 390.72495851 357.16001353 386.16828947 354.2265625 381.546875 C353.61941406 380.78117188 353.61941406 380.78117188 353 380 C352.34 380 351.68 380 351 380 C350.73574219 379.44441406 350.47148438 378.88882812 350.19921875 378.31640625 C348.871791 375.75235199 347.37513882 373.36549029 345.8125 370.9375 C343.89759317 367.96141564 341.99016344 364.98413855 340.125 361.9765625 C339.526875 361.01492188 338.92875 360.05328125 338.3125 359.0625 C337.50232422 357.74958984 337.50232422 357.74958984 336.67578125 356.41015625 C335.09723063 353.9794566 335.09723063 353.9794566 333.10546875 352.14453125 C330.26924451 349.2556869 328.19952312 346.01093256 326 342.625 C325.57460938 341.97789062 325.14921875 341.33078125 324.7109375 340.6640625 C322.75416812 337.6868919 320.80836863 334.70339409 318.875 331.7109375 C317.19327612 329.10246457 317.19327612 329.10246457 315.52685547 327.53857422 C314.0021105 326.0021267 312.87775308 324.48067564 311.6953125 322.671875 C311.06689453 321.71861328 311.06689453 321.71861328 310.42578125 320.74609375 C309.99652344 320.08738281 309.56726563 319.42867187 309.125 318.75 C307.42736024 316.1594121 305.72136062 313.57489565 304 311 C303.54979492 310.32517578 303.09958984 309.65035156 302.63574219 308.95507812 C301.4765146 307.26599083 300.24396195 305.62769259 299 304 C298.34 304 297.68 304 297 304 C296.74734375 303.29359375 296.4946875 302.5871875 296.234375 301.859375 C294.87187501 298.70320413 293.1874386 296.08857283 291.25 293.25 C288.16983562 288.72495851 285.16001353 284.16828947 282.2265625 279.546875 C281.82179688 279.03640625 281.41703125 278.5259375 281 278 C280.34 278 279.68 278 279 278 C278.73445312 277.443125 278.46890625 276.88625 278.1953125 276.3125 C273.61521217 267.45165231 267.62401819 256.55481677 260.53173828 249.54980469 C259.00810567 248.00820127 257.87931111 246.48305898 256.6953125 244.671875 C256.27636719 244.03636719 255.85742188 243.40085937 255.42578125 242.74609375 C254.99652344 242.08738281 254.56726563 241.42867187 254.125 240.75 C252.42736024 238.1594121 250.72136062 235.57489565 249 233 C248.54979492 232.32517578 248.09958984 231.65035156 247.63574219 230.95507812 C246.4765146 229.26599083 245.24396195 227.62769259 244 226 C243.34 226 242.68 226 242 226 C241.74734375 225.29359375 241.4946875 224.5871875 241.234375 223.859375 C239.87187501 220.70320413 238.1874386 218.08857283 236.25 215.25 C233.16983562 210.72495851 230.16001353 206.16828947 227.2265625 201.546875 C226.82179688 201.03640625 226.41703125 200.5259375 226 200 C225.34 200 224.68 200 224 200 C223.60361328 199.16662109 223.60361328 199.16662109 223.19921875 198.31640625 C221.871791 195.75235199 220.37513882 193.36549029 218.8125 190.9375 C216.89759317 187.96141564 214.99016344 184.98413855 213.125 181.9765625 C212.526875 181.01492188 211.92875 180.05328125 211.3125 179.0625 C210.77238281 178.18722656 210.23226562 177.31195313 209.67578125 176.41015625 C208.09723063 173.9794566 208.09723063 173.9794566 206.10546875 172.14453125 C203.26924451 169.2556869 201.19952312 166.01093256 199 162.625 C198.57460938 161.97789062 198.14921875 161.33078125 197.7109375 160.6640625 C195.75416812 157.6868919 193.80836863 154.70339409 191.875 151.7109375 C190.19327612 149.10246457 190.19327612 149.10246457 188.52685547 147.53857422 C187.0021105 146.0021267 185.87775308 144.48067564 184.6953125 142.671875 C184.27636719 142.03636719 183.85742188 141.40085937 183.42578125 140.74609375 C182.99652344 140.08738281 182.56726563 139.42867188 182.125 138.75 C180.42736024 136.1594121 178.72136062 133.57489565 177 131 C176.54979492 130.32517578 176.09958984 129.65035156 175.63574219 128.95507812 C174.4765146 127.26599083 173.24396195 125.62769259 172 124 C171.34 124 170.68 124 170 124 C169.74734375 123.29359375 169.4946875 122.5871875 169.234375 121.859375 C167.87187501 118.70320413 166.1874386 116.08857283 164.25 113.25 C161.16983562 108.72495851 158.16001353 104.16828947 155.2265625 99.546875 C154.82179688 99.03640625 154.41703125 98.5259375 154 98 C153.34 98 152.68 98 152 98 C151.73574219 97.44441406 151.47148437 96.88882813 151.19921875 96.31640625 C149.871791 93.75235199 148.37513882 91.36549029 146.8125 88.9375 C144.89759317 85.96141564 142.99016344 82.98413855 141.125 79.9765625 C140.526875 79.01492188 139.92875 78.05328125 139.3125 77.0625 C138.77238281 76.18722656 138.23226562 75.31195313 137.67578125 74.41015625 C136.09723063 71.9794566 136.09723063 71.9794566 134.10546875 70.14453125 C131.26924451 67.2556869 129.19952312 64.01093256 127 60.625 C126.57460938 59.97789062 126.14921875 59.33078125 125.7109375 58.6640625 C123.75416812 55.6868919 121.80836863 52.70339409 119.875 49.7109375 C118.19327612 47.10246457 118.19327612 47.10246457 116.52685547 45.53857422 C115.0021105 44.0021267 113.87775308 42.48067564 112.6953125 40.671875 C112.27636719 40.03636719 111.85742188 39.40085937 111.42578125 38.74609375 C110.78189453 37.75802734 110.78189453 37.75802734 110.125 36.75 C108.42736024 34.1594121 106.72136062 31.57489565 105 29 C104.54979492 28.32517578 104.09958984 27.65035156 103.63574219 26.95507812 C102.4765146 25.26599083 101.24396195 23.62769259 100 22 C99.34 22 98.68 22 98 22 C97.71125 21.21625 97.4225 20.4325 97.125 19.625 C96.15087746 16.90328368 96.15087746 16.90328368 94 15 C91.08497733 14.70620173 91.08497733 14.70620173 87.62255859 14.77294922 C86.64188667 14.77251114 86.64188667 14.77251114 85.6414032 14.77206421 C83.47694704 14.77345935 81.31283364 14.7890288 79.1484375 14.8046875 C77.64914132 14.80841698 76.1498427 14.81126426 74.65054321 14.81326294 C70.70163257 14.82090452 66.75286871 14.8405574 62.80401611 14.8626709 C58.77561428 14.8831181 54.74718876 14.89226224 50.71875 14.90234375 C42.81243259 14.92380289 34.90623455 14.95794505 27 15 Z " fill="#316785" transform="translate(238,200)"/>
</svg>
