<?xml version="1.0" encoding="UTF-8"?>
<svg version="1.1" xmlns="http://www.w3.org/2000/svg" width="1000" height="1000">
<path d="M0 0 C2.54373414 -0.00115421 5.08746811 -0.00274375 7.63120174 -0.00472724 C13.13071441 -0.00801571 18.63021361 -0.00824536 24.12972641 -0.00568008 C32.30811482 -0.00187571 40.48649503 -0.00384263 48.6648834 -0.00688839 C63.27697878 -0.01213815 77.88906976 -0.01170413 92.50116554 -0.00880948 C105.28885326 -0.00628884 118.07653938 -0.00563959 130.86422729 -0.00683212 C132.13911658 -0.0069467 132.13911658 -0.0069467 133.43976121 -0.00706359 C136.89033221 -0.00737496 140.3409032 -0.00769336 143.79147419 -0.00802336 C176.12667542 -0.01107884 208.46187386 -0.00831448 240.79707466 -0.00292646 C269.492729 0.00181875 298.1883789 0.00139411 326.8840332 -0.00338745 C359.16203282 -0.00874803 391.44002998 -0.0108621 423.71802998 -0.00777519 C427.16212781 -0.00745449 430.60622565 -0.00714165 434.05032349 -0.00683212 C434.89827964 -0.00675305 435.74623579 -0.00667397 436.61988758 -0.00659249 C449.39607767 -0.00545747 462.17226597 -0.00678071 474.94845581 -0.00931168 C489.48300289 -0.0121767 504.01754491 -0.01144383 518.55209136 -0.00603093 C526.67548669 -0.00310502 534.79887107 -0.0028879 542.92226611 -0.00667711 C549.00231232 -0.00919918 555.0823445 -0.00644349 561.16238987 -0.00170253 C563.61099961 -0.00059148 566.05961083 -0.00114017 568.5082196 -0.00357832 C606.9152406 -0.03886826 606.9152406 -0.03886826 619.20727539 2.87698364 C619.98401611 3.05253784 620.76075684 3.22809204 621.56103516 3.40896606 C642.29649737 8.26004942 660.31453386 16.85060087 672.45727539 35.12698364 C680.27184008 47.76562319 682.62827584 62.73687103 682.58590984 77.37929821 C682.58766288 78.16214035 682.58941592 78.9449825 682.59122208 79.75154713 C682.5958539 82.36053129 682.59342389 84.96945903 682.59098816 87.57844543 C682.59285755 89.47364386 682.59515877 91.3688419 682.59785348 93.26403934 C682.60396203 98.46140496 682.603839 103.65875446 682.60265911 108.85612285 C682.60245486 114.46569432 682.60797615 120.07526065 682.61271667 125.68482971 C682.62101867 136.67126274 682.62377131 147.65769041 682.62432905 158.64412632 C682.62480444 167.57590588 682.62686031 176.50768366 682.63002968 185.43946266 C682.63740265 206.64979265 682.64355463 227.86012136 682.64303112 249.07045269 C682.64301554 249.74842121 682.64299996 250.42638972 682.64298391 251.12490274 C682.64290081 254.5609265 682.64280177 257.99695025 682.6426992 261.432974 C682.64266929 262.45653564 682.64266929 262.45653564 682.64263876 263.50077529 C682.64259833 264.88070238 682.64255653 266.26062947 682.64251337 267.64055656 C682.64190078 289.10438213 682.64940508 310.56819189 682.66308594 332.03201294 C682.67845966 356.16155036 682.68703872 380.29107467 682.68612272 404.42061836 C682.6857909 417.19099477 682.68853135 429.96135337 682.69930077 442.73172569 C682.70841171 453.60505407 682.71057612 464.47835655 682.70379134 475.3516871 C682.70052913 480.89665679 682.70045872 486.4415768 682.70914459 491.98654175 C682.71702364 497.06882374 682.71556379 502.15101676 682.70686046 507.23329661 C682.70532857 509.06570102 682.70712984 510.89811212 682.71272054 512.73050865 C682.77932648 536.1221379 679.83371849 556.59505072 663.36743164 574.38479614 C661.45727539 576.12698364 661.45727539 576.12698364 659.45727539 576.12698364 C659.12727539 577.11698364 658.79727539 578.10698364 658.45727539 579.12698364 C647.79043645 588.57626776 633.00882292 592.13320527 619.45727539 595.12698364 C618.61036133 595.34225708 617.76344727 595.55753052 616.89086914 595.77932739 C600.29824931 599.73269942 581.84018997 598.27082063 564.91455078 598.25396729 C562.37081664 598.2551215 559.82708267 598.25671103 557.28334904 598.25869453 C551.78383637 598.26198299 546.28433717 598.26221265 540.78482437 598.25964737 C532.60643596 598.255843 524.42805575 598.25780991 516.24966738 598.26085568 C501.63757201 598.26610543 487.02548102 598.26567142 472.41338524 598.26277676 C459.62569752 598.26025612 446.8380114 598.25960687 434.05032349 598.26079941 C432.7754342 598.26091399 432.7754342 598.26091399 431.47478957 598.26103088 C428.02421857 598.26134224 424.57364758 598.26166065 421.12307659 598.26199064 C388.78787536 598.26504613 356.45267692 598.26228176 324.11747612 598.25689374 C295.42182178 598.25214853 266.72617188 598.25257318 238.03051758 598.25735474 C205.75251796 598.26271531 173.47452081 598.26482939 141.19652081 598.26174247 C137.75242297 598.26142178 134.30832513 598.26110894 130.86422729 598.26079941 C130.01627114 598.26072033 129.16831499 598.26064125 128.2946632 598.26055978 C115.51847311 598.25942476 102.74228481 598.260748 89.96609497 598.26327896 C75.43154789 598.26614399 60.89700587 598.26541111 46.36245942 598.25999822 C38.23906409 598.25707231 30.11567971 598.25685519 21.99228467 598.26064439 C15.91223846 598.26316646 9.83220628 598.26041078 3.75216091 598.25566982 C1.30355117 598.25455877 -1.14506004 598.25510745 -3.59366882 598.25754561 C-42.00068981 598.29283555 -42.00068981 598.29283555 -54.29272461 595.37698364 C-55.06946533 595.20142944 -55.84620605 595.02587524 -56.64648438 594.84500122 C-70.26005268 591.66009249 -83.67928453 587.33673847 -94.54272461 578.12698364 C-94.54272461 577.46698364 -94.54272461 576.80698364 -94.54272461 576.12698364 C-95.13182617 575.87174927 -95.72092773 575.61651489 -96.32788086 575.35354614 C-106.12204114 569.92961964 -111.41421445 557.25119014 -114.54272461 547.12698364 C-116.9133186 538.50535906 -117.69715665 529.79076489 -117.67135906 520.87466908 C-117.6731121 520.09182693 -117.67486514 519.30898479 -117.6766713 518.50242016 C-117.68130312 515.893436 -117.6788731 513.28450826 -117.67643738 510.67552185 C-117.67830677 508.78032342 -117.68060799 506.88512538 -117.6833027 504.98992795 C-117.68941125 499.79256233 -117.68928822 494.59521282 -117.68810833 489.39784443 C-117.68790408 483.78827297 -117.69342537 478.17870664 -117.69816589 472.56913757 C-117.70646788 461.58270454 -117.70922053 450.59627687 -117.70977827 439.60984097 C-117.71025366 430.67806141 -117.71230953 421.74628362 -117.7154789 412.81450462 C-117.72285187 391.60417464 -117.72900385 370.39384592 -117.72848034 349.1835146 C-117.72846476 348.50554608 -117.72844918 347.82757756 -117.72843313 347.12906454 C-117.72835003 343.69304079 -117.72825099 340.25701704 -117.72814842 336.82099328 C-117.72812848 336.13861886 -117.72810853 335.45624443 -117.72808798 334.75319199 C-117.72804755 333.3732649 -117.72800575 331.99333781 -117.72796259 330.61341073 C-117.72735 309.14958516 -117.7348543 287.68577539 -117.74853516 266.22195435 C-117.76390888 242.09241693 -117.77248793 217.96289261 -117.77157193 193.83334893 C-117.77124012 181.06297251 -117.77398057 168.29261392 -117.78474998 155.52224159 C-117.79386093 144.64891321 -117.79602534 133.77561074 -117.78924056 122.90228019 C-117.78597835 117.3573105 -117.78590794 111.81239049 -117.79459381 106.26742554 C-117.80247286 101.18514355 -117.80101301 96.10295053 -117.79230968 91.02067067 C-117.79077779 89.18826626 -117.79257905 87.35585516 -117.79816975 85.52345864 C-117.86235555 62.98177024 -115.5110546 41.51949848 -99.16772461 24.37698364 C-96.54272461 22.12698364 -96.54272461 22.12698364 -94.54272461 22.12698364 C-94.21272461 21.13698364 -93.88272461 20.14698364 -93.54272461 19.12698364 C-78.84510822 6.10701081 -55.23850454 1.47357472 -36.10398865 0.54898262 C-35.29221206 0.50854165 -34.48043548 0.46810068 -33.6440596 0.42643423 C-22.43475606 -0.07595571 -11.21797459 -0.01117006 0 0 Z M190.45727539 148.12698364 C190.45727539 246.46698364 190.45727539 344.80698364 190.45727539 446.12698364 C193.69124524 444.8333957 196.34207392 443.72416098 199.26977539 442.00198364 C200.32165039 441.38323364 201.37352539 440.76448364 202.45727539 440.12698364 C202.45727539 439.46698364 202.45727539 438.80698364 202.45727539 438.12698364 C203.09665039 437.90010864 203.73602539 437.67323364 204.39477539 437.43948364 C208.590478 435.64132538 212.49628095 433.38794343 216.45727539 431.12698364 C216.45727539 430.46698364 216.45727539 429.80698364 216.45727539 429.12698364 C217.13661133 428.88979614 217.81594727 428.65260864 218.51586914 428.40823364 C222.12591213 426.83573152 225.24689662 424.7996476 228.51977539 422.62698364 C235.89716055 417.76055255 235.89716055 417.76055255 239.45727539 416.12698364 C239.45727539 415.46698364 239.45727539 414.80698364 239.45727539 414.12698364 C240.09665039 413.90010864 240.73602539 413.67323364 241.39477539 413.43948364 C245.590478 411.64132538 249.49628095 409.38794343 253.45727539 407.12698364 C253.45727539 406.46698364 253.45727539 405.80698364 253.45727539 405.12698364 C254.09665039 404.90010864 254.73602539 404.67323364 255.39477539 404.43948364 C259.590478 402.64132538 263.49628095 400.38794343 267.45727539 398.12698364 C267.45727539 397.46698364 267.45727539 396.80698364 267.45727539 396.12698364 C268.49561523 395.75766724 268.49561523 395.75766724 269.55493164 395.38088989 C272.9068816 393.93273924 275.85992118 392.06930336 278.89477539 390.06448364 C280.1304186 389.25974412 281.36609675 388.45505827 282.60180664 387.65042114 C283.23425293 387.23630981 283.86669922 386.82219849 284.51831055 386.39553833 C287.6985775 384.3148701 290.88951137 382.25090328 294.08227539 380.18948364 C294.66162842 379.81235229 295.24098145 379.43522095 295.83789062 379.04666138 C298.64232558 377.23387264 301.42827542 375.53805436 304.45727539 374.12698364 C304.45727539 373.46698364 304.45727539 372.80698364 304.45727539 372.12698364 C305.09665039 371.90010864 305.73602539 371.67323364 306.39477539 371.43948364 C310.590478 369.64132538 314.49628095 367.38794343 318.45727539 365.12698364 C318.45727539 364.46698364 318.45727539 363.80698364 318.45727539 363.12698364 C319.09665039 362.90010864 319.73602539 362.67323364 320.39477539 362.43948364 C324.590478 360.64132538 328.49628095 358.38794343 332.45727539 356.12698364 C332.45727539 355.46698364 332.45727539 354.80698364 332.45727539 354.12698364 C333.13661133 353.88979614 333.81594727 353.65260864 334.51586914 353.40823364 C338.12591213 351.83573152 341.24689662 349.7996476 344.51977539 347.62698364 C351.89716055 342.76055255 351.89716055 342.76055255 355.45727539 341.12698364 C355.45727539 340.46698364 355.45727539 339.80698364 355.45727539 339.12698364 C356.09665039 338.90010864 356.73602539 338.67323364 357.39477539 338.43948364 C361.590478 336.64132538 365.49628095 334.38794343 369.45727539 332.12698364 C369.45727539 331.46698364 369.45727539 330.80698364 369.45727539 330.12698364 C370.09665039 329.90010864 370.73602539 329.67323364 371.39477539 329.43948364 C375.590478 327.64132538 379.49628095 325.38794343 383.45727539 323.12698364 C383.45727539 322.46698364 383.45727539 321.80698364 383.45727539 321.12698364 C384.49561523 320.75766724 384.49561523 320.75766724 385.55493164 320.38088989 C388.9068816 318.93273924 391.85992118 317.06930336 394.89477539 315.06448364 C396.1304186 314.25974412 397.36609675 313.45505827 398.60180664 312.65042114 C399.23425293 312.23630981 399.86669922 311.82219849 400.51831055 311.39553833 C403.6985775 309.3148701 406.88951137 307.25090328 410.08227539 305.18948364 C410.95130493 304.62378662 410.95130493 304.62378662 411.83789062 304.04666138 C414.64232558 302.23387264 417.42827542 300.53805436 420.45727539 299.12698364 C420.45727539 298.13698364 420.45727539 297.14698364 420.45727539 296.12698364 C417.92543051 293.76974876 416.98537446 293.12698364 413.45727539 293.12698364 C413.45727539 292.46698364 413.45727539 291.80698364 413.45727539 291.12698364 C411.54508736 289.77217114 411.54508736 289.77217114 409.08227539 288.43948364 C404.3535547 285.71525621 399.96761694 282.69645041 395.58618164 279.44729614 C393.44987367 277.86345749 393.44987367 277.86345749 390.45727539 278.12698364 C390.45727539 277.46698364 390.45727539 276.80698364 390.45727539 276.12698364 C388.34838531 274.56214014 388.34838531 274.56214014 385.70727539 273.06448364 C384.82555664 272.53725708 383.94383789 272.01003052 383.03540039 271.46682739 C380.78747769 270.29858878 378.92906615 269.59477582 376.45727539 269.12698364 C376.45727539 268.46698364 376.45727539 267.80698364 376.45727539 267.12698364 C374.34838531 265.56214014 374.34838531 265.56214014 371.70727539 264.06448364 C370.82555664 263.53725708 369.94383789 263.01003052 369.03540039 262.46682739 C366.78747769 261.29858878 364.92906615 260.59477582 362.45727539 260.12698364 C362.45727539 259.46698364 362.45727539 258.80698364 362.45727539 258.12698364 C360.54508736 256.77217114 360.54508736 256.77217114 358.08227539 255.43948364 C354.34594741 253.27801526 350.78241728 251.01101356 347.26977539 248.50198364 C344.49517535 246.52508112 341.75049119 244.65202274 338.76977539 243.00198364 C336.22431273 241.56115572 334.03335408 240.11547252 331.70727539 238.37698364 C328.70498714 235.84237865 328.70498714 235.84237865 325.45727539 236.12698364 C325.45727539 235.46698364 325.45727539 234.80698364 325.45727539 234.12698364 C323.34838531 232.56214014 323.34838531 232.56214014 320.70727539 231.06448364 C319.82555664 230.53725708 318.94383789 230.01003052 318.03540039 229.46682739 C315.78747769 228.29858878 313.92906615 227.59477582 311.45727539 227.12698364 C311.45727539 226.46698364 311.45727539 225.80698364 311.45727539 225.12698364 C309.34838531 223.56214014 309.34838531 223.56214014 306.70727539 222.06448364 C305.82555664 221.53725708 304.94383789 221.01003052 304.03540039 220.46682739 C301.78747769 219.29858878 299.92906615 218.59477582 297.45727539 218.12698364 C297.45727539 217.46698364 297.45727539 216.80698364 297.45727539 216.12698364 C295.54508736 214.77217114 295.54508736 214.77217114 293.08227539 213.43948364 C288.3535547 210.71525621 283.96761694 207.69645041 279.58618164 204.44729614 C277.44987367 202.86345749 277.44987367 202.86345749 274.45727539 203.12698364 C274.45727539 202.46698364 274.45727539 201.80698364 274.45727539 201.12698364 C272.34838531 199.56214014 272.34838531 199.56214014 269.70727539 198.06448364 C268.82555664 197.53725708 267.94383789 197.01003052 267.03540039 196.46682739 C264.78747769 195.29858878 262.92906615 194.59477582 260.45727539 194.12698364 C260.45727539 193.46698364 260.45727539 192.80698364 260.45727539 192.12698364 C258.34838531 190.56214014 258.34838531 190.56214014 255.70727539 189.06448364 C254.82555664 188.53725708 253.94383789 188.01003052 253.03540039 187.46682739 C250.78747769 186.29858878 248.92906615 185.59477582 246.45727539 185.12698364 C246.45727539 184.46698364 246.45727539 183.80698364 246.45727539 183.12698364 C244.54508736 181.77217114 244.54508736 181.77217114 242.08227539 180.43948364 C238.34594741 178.27801526 234.78241728 176.01101356 231.26977539 173.50198364 C228.49517535 171.52508112 225.75049119 169.65202274 222.76977539 168.00198364 C220.22431273 166.56115572 218.03335408 165.11547252 215.70727539 163.37698364 C212.70498714 160.84237865 212.70498714 160.84237865 209.45727539 161.12698364 C209.45727539 160.46698364 209.45727539 159.80698364 209.45727539 159.12698364 C207.34838531 157.56214014 207.34838531 157.56214014 204.70727539 156.06448364 C203.38469727 155.2736438 203.38469727 155.2736438 202.03540039 154.46682739 C199.78747769 153.29858878 197.92906615 152.59477582 195.45727539 152.12698364 C195.45727539 151.46698364 195.45727539 150.80698364 195.45727539 150.12698364 C192.98227539 149.13698364 192.98227539 149.13698364 190.45727539 148.12698364 Z " fill="#316785" transform="translate(217.542724609375,202.87301635742188)"/>
</svg>
